<?xml version="1.0" standalone="no"?><!DOCTYPE svg PUBLIC "-//W3C//DTD SVG 1.1//EN" "http://www.w3.org/Graphics/SVG/1.1/DTD/svg11.dtd"><svg t="1693645861835" class="icon" viewBox="0 0 1024 1024" version="1.1" xmlns="http://www.w3.org/2000/svg" p-id="2303" xmlns:xlink="http://www.w3.org/1999/xlink" width="200" height="200"><path d="M755.931429 774.290286c102.034286-113.810286 154.331429-218.112 154.331428-314.221715C910.189714 237.421714 731.867429 56.905143 512 56.905143S113.810286 237.421714 113.810286 459.995429c0 141.458286 113.078857 301.714286 335.725714 485.156571 36.205714 29.915429 88.722286 29.257143 124.050286-1.682286l72.630857-63.926857a37.010286 37.010286 0 0 0 3.072-51.785143 35.84 35.84 0 0 0-51.126857-3.072l-71.899429 63.195429a23.917714 23.917714 0 0 1-31.012571 0.438857C288.036571 717.531429 186.221714 573.293714 186.221714 459.995429 186.221714 277.942857 332.068571 130.194286 512 130.194286s325.778286 147.748571 325.778286 329.874285c0 74.678857-44.324571 163.474286-135.460572 265.069715a37.010286 37.010286 0 0 0 2.486857 51.785143 35.913143 35.913143 0 0 0 51.2-2.56z" fill="#ffffff" p-id="2304"></path><path d="M512 301.202286c86.674286 0 156.891429 71.168 156.891429 158.793143 0 87.771429-70.217143 158.866286-156.891429 158.866285s-156.891429-71.168-156.891429-158.866285c0-87.625143 70.217143-158.72 156.891429-158.72zM512 374.491429c-46.665143 0-84.48 38.326857-84.48 85.577142 0 47.177143 37.814857 85.504 84.48 85.504s84.48-38.326857 84.48-85.577142c0-47.177143-37.814857-85.504-84.48-85.504z" fill="#ffffff" p-id="2305"></path></svg>