<?xml version="1.0" standalone="no"?><!DOCTYPE svg PUBLIC "-//W3C//DTD SVG 1.1//EN" "http://www.w3.org/Graphics/SVG/1.1/DTD/svg11.dtd"><svg t="1693645867773" class="icon" viewBox="0 0 1024 1024" version="1.1" xmlns="http://www.w3.org/2000/svg" p-id="2439" xmlns:xlink="http://www.w3.org/1999/xlink" width="200" height="200"><path d="M405.333 409.6c-76.8 0-137.955 69.689-137.955 146.489 0 78.222 62.578 140.8 137.955 140.8 76.8 0 137.956-62.578 137.956-140.8S480.71 409.6 405.333 409.6z m0 217.6c-38.4 0-68.266-31.289-68.266-69.689s31.289-76.8 68.266-76.8c38.4 0 68.267 36.978 68.267 76.8 1.422 38.4-29.867 69.689-68.267 69.689z m374.045-160.711c-22.756 0-41.245-18.489-41.245-42.667v-62.578l-1.422 59.734c0-58.311-9.955-85.334-56.889-86.756H558.933c-5.689 0-11.377-1.422-17.066-4.266-15.645-5.69-25.6-21.334-25.6-39.823 0-2.844 0-7.11 1.422-9.955v-61.156H324.267v71.111c0 2.845 0 5.69-1.423 8.534-4.266 19.91-19.91 34.133-41.244 34.133-2.844 0-5.689 0-8.533-1.422H163.556c-58.312 2.844-69.69 39.822-69.69 102.4l-1.422-56.89v368.356-38.4c0 68.267 12.8 95.29 82.49 95.29H91.021v1.422H512c22.756 0 41.244 18.488 41.244 42.666 0 22.756-18.488 42.667-41.244 42.667H92.444c-44.088 0-81.066-35.556-82.488-81.067V331.378c0-45.511 35.555-82.49 79.644-83.911h150.756V204.8c5.688-38.4 38.4-68.267 78.222-69.689h199.11c45.512 0 82.49 38.4 82.49 83.911v28.445h139.378c45.51 0 82.488 38.4 82.488 83.91v89.6c-1.422 27.023-19.91 45.512-42.666 45.512zM92.444 335.644l41.245-1.422z m645.689-1.422H684.09l54.044 1.422z m-153.6 320l58.311 24.178v-7.111c0-4.267 1.423-8.533 2.845-12.8 7.111-25.6 24.178-42.667 45.511-42.667 4.267 0 9.956 1.422 14.222 2.845h1.422l5.69 1.422 88.177 36.978 8.533 2.844c35.556 14.222 48.356 19.911 52.623 21.333v1.423c11.377 4.266 22.755 7.11 35.555 7.11 49.778 0 92.445-39.821 108.09-99.555 1.421-4.266 1.421-8.533 2.844-12.8l1.422-4.266-64-25.6v7.11c0 4.267-1.422 8.534-1.422 12.8-7.112 25.6-24.178 42.667-45.512 42.667-4.266 0-9.955-1.422-14.222-2.844H883.2l-7.111-2.845L745.244 550.4c-1.422-1.422-4.266-1.422-5.688-1.422-4.267-2.845-7.112-4.267-11.378-5.69-11.378-4.266-22.756-7.11-35.556-7.11-49.778 0-92.444 39.822-108.089 99.555-1.422 5.69-2.844 11.378-4.266 18.49h4.266z m358.4 112.356c0 4.266-1.422 8.533-1.422 12.8-7.111 25.6-24.178 42.666-45.511 42.666-4.267 0-9.956-1.422-14.222-2.844h-1.422l-5.69-1.422-130.844-54.045c-1.422-1.422-4.266-1.422-5.689-1.422-4.266-1.422-7.11-4.267-11.377-5.689-11.378-4.266-22.756-7.11-35.556-7.11-49.778 0-92.444 39.821-108.089 99.555-1.422 5.689-2.844 11.377-4.267 18.489l4.267 1.422v1.422l58.311 24.178v-7.111c0-4.267 1.422-8.534 2.845-12.8 7.11-25.6 24.177-42.667 45.51-42.667 4.267 0 9.956 1.422 15.645 2.844l5.69 2.845 86.755 35.555 8.533 2.845 59.733 24.178c9.956 2.844 18.49 4.266 28.445 4.266 49.778 0 92.444-39.822 108.089-99.555 1.422-4.267 1.422-8.534 2.844-12.8l1.422-4.267-64-25.6v4.267z" fill="#ffffff" p-id="2440"></path></svg>