<?xml version="1.0" standalone="no"?><!DOCTYPE svg PUBLIC "-//W3C//DTD SVG 1.1//EN" "http://www.w3.org/Graphics/SVG/1.1/DTD/svg11.dtd"><svg t="1693645854912" class="icon" viewBox="0 0 1024 1024" version="1.1" xmlns="http://www.w3.org/2000/svg" p-id="2166" xmlns:xlink="http://www.w3.org/1999/xlink" width="200" height="200"><path d="M508.5 572.6c-134.8 0-244.4-109.6-244.4-244.4S373.7 83.9 508.5 83.9s244.4 109.6 244.4 244.4-109.7 244.3-244.4 244.3z m0-407.2c-89.8 0-162.9 73.1-162.9 162.9s73.1 162.9 162.9 162.9 162.9-73.1 162.9-162.9-73.1-162.9-162.9-162.9z" fill="#ffffff" p-id="2167"></path><path d="M304.9 939.2c-134.7 0-244.4-109.6-244.4-244.4s109.6-244.4 244.4-244.4S549.3 560 549.3 694.8 439.6 939.2 304.9 939.2z m0-407.3C215.1 531.9 142 605 142 694.8s73 162.9 162.9 162.9 162.9-73.1 162.9-162.9-73.1-162.9-162.9-162.9z" fill="#ffffff" p-id="2168"></path><path d="M712.1 939.2c-134.8 0-244.4-109.6-244.4-244.4s109.6-244.4 244.4-244.4S956.5 560 956.5 694.8 846.9 939.2 712.1 939.2z m0-407.3c-89.8 0-162.9 73.1-162.9 162.9s73.1 162.9 162.9 162.9S875 784.7 875 694.8s-73-162.9-162.9-162.9z" fill="#ffffff" p-id="2169"></path></svg>